<?xml version="1.0" encoding="utf-8"?>
<!-- Generator: Adobe Illustrator 28.2.0, SVG Export Plug-In . SVG Version: 6.00 Build 0)  -->
<svg version="1.1" id="Layer_1" xmlns="http://www.w3.org/2000/svg" xmlns:xlink="http://www.w3.org/1999/xlink" x="0px" y="0px"
	 viewBox="0 0 612 792" style="enable-background:new 0 0 612 792;" xml:space="preserve">
<style type="text/css">
	.st0{clip-path:url(#SVGID_00000153673029281702687080000010399369959895043770_);}
	.st1{fill:#F3705D;}
	.st2{fill:#FFFFFF;}
</style>
<g>
	<defs>
		<rect id="SVGID_1_" x="37.21" y="100.65" width="564.85" height="564.85"/>
	</defs>
	<clipPath id="SVGID_00000048460355032725412360000006850408281492015011_">
		<use xlink:href="#SVGID_1_"  style="overflow:visible;"/>
	</clipPath>
	<g style="clip-path:url(#SVGID_00000048460355032725412360000006850408281492015011_);">
		<g>
			<path class="st1" d="M37.21,283.99c0-73.19,45.19-139.21,116.26-156.75c118.97-29.18,298.43-53.19,386.8,35.19
				c74.61,74.61,69.08,214.17,48.01,327.38C568.16,597.71,467.79,665.5,357.88,665.5H125.46c-48.72,0-88.26-39.54-88.26-88.26
				V283.99z"/>
			<path class="st2" d="M157,511.46c-0.24-4.59-0.59-11.41-1.18-20.48c-0.24-9.3-0.59-19.89-1.18-31.42
				c-0.24-11.89-0.59-24.24-1.18-37.19c-0.47-12.94-1.06-25.18-1.53-36.72c-0.24-11.65-0.47-22.01-0.71-31.07
				c-0.24-9.3-0.35-16.36-0.35-20.83c0-1.53-0.12-4-0.35-7.53v-23.89c0.24-3.77,0.35-6.47,0.35-8c-3.06,1.53-6.71,4.12-10.94,8
				c-4,3.77-8.47,8-13.3,12.47c-4.82,4.35-9.77,8.36-14.83,12.12c-4.82,3.53-9.3,5.77-13.65,6.83c-5.77-3.53-8.47-7.88-8-12.94
				c0.47-5.3,3.29-10.83,8.36-16.71c5.3-6.12,12.24-12.24,20.83-18.59c8.83-6.35,18.48-12.36,28.83-18.24
				c10.59-5.77,21.53-11.18,32.6-15.89c11.18-4.82,21.65-8.71,31.42-11.77c10.12-3.29,18.95-5.3,26.59-6.12
				c7.88-1.06,13.65-0.47,17.42,1.53c7.06,7.3,10.47,16.47,10.24,27.3s-2.71,22.48-7.18,34.83c-4.59,12.36-10.47,25.3-17.77,38.72
				c-7.3,13.42-14.36,26.36-21.18,39.07c-6.83,12.36-12.59,24.12-17.42,35.3c-4.82,10.83-7.06,20.24-6.83,28.01
				c0.24,7.88,3.88,13.65,10.94,17.42c7.06,3.77,19.06,4.71,36.01,2.71c8.59-2,17.53-5.18,26.95-9.53
				c9.3-4.59,18.48-9.53,27.3-14.83c8.83-5.53,17.06-11.41,24.59-17.42c7.88-6.12,14.36-11.77,19.77-17.06
				c8.83,2.24,13.77,5.53,14.83,9.88c1.06,4.35-0.71,9.06-5.3,14.36c-4.24,5.3-10.83,10.83-19.77,16.71
				c-8.83,5.77-18.83,11.53-30.01,17.06c-11.06,5.3-22.71,10.12-34.83,14.36c-11.89,4.35-23.42,7.53-34.48,9.88
				c-10.83,2.24-20.71,3.29-29.54,3.06c-8.59-0.24-14.94-2.35-18.95-6.47c0,1.53-0.12,4.12-0.35,8c-0.24,3.77-0.71,7.88-1.53,12.12
				c-0.71,4-2,8-3.77,11.77c-1.77,3.53-4.35,6.12-7.53,7.53c-2.82,1.29-5.41,1.06-8-0.71c-2.24-1.77-4-3.65-5.3-5.65L157,511.46z
				 M177.01,428.02l69.78-155.8c-1.77-5.77-4.82-9.88-9.06-12.12c-4-2.47-8.71-3.65-14-3.41c-5.3,0-10.71,1.18-16.36,3.41
				c-5.53,2.24-10.71,5.06-15.53,8.36c-4.59,3.06-8.36,6.47-11.41,10.24c-3.06,3.53-4.59,6.83-4.59,9.88l1.18,139.56L177.01,428.02z
				"/>
		</g>
	</g>
</g>
<path class="st2" d="M408.01,428.49c-7.41,0-13.18-0.71-17.3-2.12c-4.12-1.41-7.06-4.24-8.71-8.47c-1.65-4.12-2.59-10.24-2.59-18.36
	V269.51h28.48v130.03c0,7.18,1.29,13.06,4,17.42c2.59,4.47,8.71,6.59,18.24,6.59h6.35l20.36-2.12l-11.41,5.06l-8.94,1.77h-28.48
	L408.01,428.49z"/>
<circle class="st2" cx="395.18" cy="219.15" r="23.06"/>
</svg>
